# xmcd
#
# Track frame offsets:
#	150
#	16312
#	24037
#	34875
#	42216
#	58639
#	63570
#	81552
#	99182
#	118576
#	137967
#	155981
#
# Disc length: 2283 seconds
#
# Revision: 0
# Processed by: cddbd v1.5.1PL0 Copyright (c) Steve Scherf et al.
# Submitted via: dBpowerAMP V4.0
#
DISCID=9e08e90c
DTITLE=the rebel - the rocket breaks down
DYEAR=1900
DGENRE=
TTITLE0=01 the rocket breaks down
TTITLE1=02 you better take your eyes off that girl
TTITLE2=03 mos e17zley
TTITLE3=04 pepper limping deafly accross the hall
TTITLE4=05 demonstration tape
TTITLE5=06 stepping on your headphones
TTITLE6=07 the piano lesson
TTITLE7=08 woman of the year 2003/4
TTITLE8=09 nothing is real except recording
TTITLE9=10 when you`re wearing them
TTITLE10=11 wheels
TTITLE11=12 the rocket breaks up
EXTD=
EXTT0=
EXTT1=
EXTT2=
EXTT3=
EXTT4=
EXTT5=
EXTT6=
EXTT7=
EXTT8=
EXTT9=
EXTT10=
EXTT11=
PLAYORDER=
